<svg id="Layer_1" data-name="Layer 1" xmlns="http://www.w3.org/2000/svg" xmlns:xlink="http://www.w3.org/1999/xlink" viewBox="0 0 280 300"><defs><style>.cls-1{fill:#236092;}.cls-2{fill:#b4bd00;}.cls-3{fill:url(#New_Gradient_Swatch_14);}</style><radialGradient id="New_Gradient_Swatch_14" cx="9.19" cy="148.34" r="7.72" gradientTransform="matrix(-1, 0, 0, 1, 98.67, 0)" gradientUnits="userSpaceOnUse"><stop offset="0" stop-color="#b4bd00"/><stop offset="0.2" stop-color="#afb702"/><stop offset="0.46" stop-color="#a3a709"/><stop offset="0.76" stop-color="#8e8c14"/><stop offset="1" stop-color="#787020"/></radialGradient></defs><title>Talend Logo</title><path class="cls-1" d="M129.86,154a8.2,8.2,0,0,0-3.74.79,3.16,3.16,0,0,0-1.63,3,3.45,3.45,0,0,0,3.8,3.6,7.73,7.73,0,0,0,5.07-2.22v-5.27Zm3.85,8.58a9.65,9.65,0,0,1-6.8,2.86c-4.39,0-7.59-2.91-7.59-7.39a6.62,6.62,0,0,1,3.89-6.31,14.09,14.09,0,0,1,6-1.23l4.19-.15v-1c0-3.05-1.92-4.33-4.68-4.33a12.54,12.54,0,0,0-6.21,1.72l-1.77-3.4a17.43,17.43,0,0,1,8.77-2.32c5.77,0,9,2.67,9,8.33v9c0,3.35.33,4.74,1.18,6.6h-5.13Z"/><path class="cls-1" d="M105.09,145.71v13.74c0,3.8,2.31,6,6.2,6a12.37,12.37,0,0,0,6.17-1.62,7.23,7.23,0,0,1-1.37-3.7,6.6,6.6,0,0,1-3.56,1.13c-1.53,0-2.32-.84-2.32-3V145.71h5.72l1.28-4h-7v-6.95l-5.12,1.58v9.41Z"/><path class="cls-1" d="M168.32,150.93c-.1-3-1.53-5.86-4.83-5.86-3.11,0-4.93,2.71-5,5.86Zm-9.76,3.64a6.56,6.56,0,0,0,6.95,6.81,11.61,11.61,0,0,0,5.86-1.58l1.53,3.5a14.76,14.76,0,0,1-7.93,2.17c-8.13,0-11.63-5.77-11.63-12.22,0-7.05,3.89-12.18,10.2-12.18s10,4.74,10,12.28v1.22Z"/><path class="cls-1" d="M151.2,160.5a11.93,11.93,0,0,1-1.73.33c-1.14,0-1.73-.49-1.73-2.21V130.09L142.62,132v28.09c0,3.39,1.77,5.27,5.37,5.27a13.76,13.76,0,0,0,5.68-1.17A9.73,9.73,0,0,1,151.2,160.5Z"/><path class="cls-1" d="M177,141.67h4.7l-.06,3c2.46-2,5.36-3.56,8.27-3.56,3.69,0,7.29,2,7.29,8.37V165H192V151.08c0-3.06-.69-5.52-3.79-5.52-2.17,0-4.28,1.23-6.16,2.81V165H177Z"/><path class="cls-1" d="M221.64,158.37V130.14h0v-.06L216.51,132v9.46a16.41,16.41,0,0,0-3.4-.34c-7.08,0-12.38,4.91-12.55,12.11v0s0,.08,0,.14,0,.11,0,.17,0,.07,0,.11c0,1.7.29,7.17,4.4,10.14l.08.05.5.33.12.07.61.34.08,0,.34.16.08,0a4.62,4.62,0,0,0,.62.23h0l.57.17.23.05.4.08.41.05.35,0h.18c.17,0,.33,0,.51,0a9.65,9.65,0,0,0,6.8-2.86l.83,2.36h5.14C222,163.11,221.64,161.72,221.64,158.37Zm-11.09,2.93a4.65,4.65,0,0,1-1.57-.58l-.1-.06-.1-.06a4.6,4.6,0,0,1-.63-.45c-.13-.12-.24-.25-.35-.37l-.15-.16-.08-.09a7.07,7.07,0,0,1-.78-1.13l-.14-.3a1.19,1.19,0,0,1-.08-.16,10.08,10.08,0,0,1-.72-5.31,11,11,0,0,1,.16-1.19.28.28,0,0,1,0-.09,10.74,10.74,0,0,1,.37-1.31,7.15,7.15,0,0,1,7-4.68,11.53,11.53,0,0,1,3.1.39v13.41a7.54,7.54,0,0,1-5.06,2.22A2.94,2.94,0,0,1,210.55,161.3Z"/><rect class="cls-1" x="86.53" y="135.9" width="0.11" height="16.31" transform="translate(-70.79 85.04) rotate(-38.44)"/><rect class="cls-1" x="75.22" y="124.83" width="0.11" height="36.12" transform="translate(-86.01 151.28) rotate(-65.2)"/><path class="cls-2" d="M57.68,134.11a1.71,1.71,0,1,1,0,2.42A1.71,1.71,0,0,1,57.68,134.11Z"/><rect class="cls-1" x="79.84" y="153.02" width="12.39" height="0.11" transform="translate(-56.3 50.24) rotate(-24.81)"/><path class="cls-2" d="M80.31,136.46a1.71,1.71,0,1,1,0,2.42A1.71,1.71,0,0,1,80.31,136.46Z"/><rect class="cls-1" x="73.32" y="159.29" width="22.62" height="0.11" transform="translate(-92.81 126.64) rotate(-51.58)"/><path class="cls-2" d="M76.39,169.41A1.71,1.71,0,0,0,78.81,167a1.71,1.71,0,1,0-2.42,2.43Z"/><path class="cls-2" d="M79.2,154.46a1.71,1.71,0,1,1,0,2.43A1.72,1.72,0,0,1,79.2,154.46Z"/><rect class="cls-1" x="71.44" y="150.41" width="20.19" height="0.11"/><path class="cls-2" d="M70.22,149.25a1.72,1.72,0,1,1,0,2.43A1.72,1.72,0,0,1,70.22,149.25Z"/><path class="cls-3" d="M99,150.47a7.33,7.33,0,1,0-7.33,7.33A7.34,7.34,0,0,0,99,150.47Z"/></svg>